<?xml version="1.0" encoding="UTF-8" standalone="no"?>
<!-- Created with Inkscape (http://www.inkscape.org/) -->

<svg
   xmlns:dc="http://purl.org/dc/elements/1.1/"
   xmlns:cc="http://creativecommons.org/ns#"
   xmlns:rdf="http://www.w3.org/1999/02/22-rdf-syntax-ns#"
   xmlns:svg="http://www.w3.org/2000/svg"
   xmlns="http://www.w3.org/2000/svg"
   xmlns:sodipodi="http://sodipodi.sourceforge.net/DTD/sodipodi-0.dtd"
   xmlns:inkscape="http://www.inkscape.org/namespaces/inkscape"
   width="286.76874"
   height="264.47324"
   id="svg3619"
   version="1.1"
   sodipodi:docname="palette.svg">
  <g
     inkscape:label="Layer"
     inkscape:groupmode="layer"
     id="layer1"
     transform="translate(0,-787.88893)">
    <g
       transform="translate(-332.89679,232.20109)"
       id="g3414">
      <path
         d="m 489.85179,617.08534 c 0.38875,2.4475 0.76,4.9975 1.1,7.66125 1.2575,9.9325 2.0175,20.39125 2.30625,31.32875 0.31375,11.9475 0.06,24.39625 -0.72375,37.27625 -0.85125,14.0325 -2.3275,28.47113 -4.36125,43.21575 -2.20625,15.997 -5.05125,32.21287 -8.4375,48.51075 22.86,-0.69 47.61375,-1.4405 74.5075,-2.251 -4.43125,-19.61675 -9.38875,-38.53175 -14.9125,-56.539 -4.93625,-16.084 -10.29875,-31.34025 -16.1125,-45.65525 -5.2,-12.795 -10.73875,-24.78 -16.645,-35.89375 -5.29125,-9.955 -10.86125,-19.18125 -16.72125,-27.65375"
         style="fill:#ff7000;fill-opacity:1;fill-rule:nonzero;stroke:none"
         id="path2866" />
      <path
         d="m 482.35804,606.67909 c 1.3675,1.7075 2.755,3.49875 4.16375,5.3875 5.26625,7.06625 10.3225,14.715 15.18,22.93 5.35625,9.06125 10.45625,18.795 15.32,29.1675 5.37125,11.46875 10.4375,23.6825 15.205,36.59125 5.2825,14.291 10.17875,29.36763 14.72375,45.13087 20.655,-11.149 41.6525,-22.48787 63.0075,-34.01374 -12.50875,-13.59338 -25.03375,-26.37713 -37.565,-38.21213 -11.165,-10.545 -22.305,-20.30875 -33.43,-29.22375 -9.955,-7.98 -19.885,-15.26875 -29.81375,-21.83125 -8.92625,-5.905 -17.85125,-11.21875 -26.79125,-15.92625"
         style="fill:#ff3800;fill-opacity:1;fill-rule:nonzero;stroke:none"
         id="path2868" />
      <path
         d="m 471.01304,600.92659 c 2,0.91 4.04875,1.88 6.155,2.91 7.8475,3.84375 15.68,8.1525 23.52625,12.9075 8.61125,5.2225 17.23375,10.98625 25.8875,17.275 9.53625,6.93875 19.10125,14.51125 28.71375,22.68125 10.63625,9.05 21.30875,18.8275 32.02625,29.26875 11.23875,-15.4325 22.01,-30.22625 32.34375,-44.415 -14.64625,-5.88375 -29.21125,-11.29875 -43.6475,-16.15125 -13.0925,-4.40125 -26.0625,-8.33125 -38.90125,-11.73875 -11.68875,-3.1 -23.2725,-5.765 -34.75875,-7.95375 -10.5125,-2 -20.95125,-3.60625 -31.345,-4.78375"
         style="fill:#ff0000;fill-opacity:1;fill-rule:nonzero;stroke:none"
         id="path2870" />
      <path
         d="m 457.64179,599.56784 c 2.33875,0.165 4.74,0.35875 7.2075,0.585 9.1075,0.83625 18.25,1.99625 27.4475,3.46625 9.93875,1.59 19.95125,3.5425 30.04875,5.8275 10.9575,2.48625 22.0225,5.36875 33.19875,8.61625 12.1725,3.54125 24.475,7.5175 36.88875,11.875 1.8075,-13.38 3.4875,-25.74125 5.0325,-37.1975 -12.7225,-0.6325 -25.55,-0.995 -38.41125,-1.01875 -11.98375,-0.0263 -23.9925,0.245 -36.0025,0.85125 -11.22,0.57125 -22.4525,1.43625 -33.69125,2.645 -10.54,1.135 -21.10875,2.57 -31.71875,4.35"
         style="fill:#c60000;fill-opacity:1;fill-rule:nonzero;stroke:none"
         id="path2872" />
      <path
         d="m 443.66304,602.04159 c 2.44875,-0.495 4.9575,-0.98125 7.5325,-1.45625 19.26,-3.55625 38.40875,-5.9825 57.5125,-7.5 21.505,-1.7075 43.07125,-2.27375 64.55,-1.9775 -3.9875,-9.07125 -7.60875,-17.34 -10.93375,-24.8975 -19.10625,3.91125 -39.14125,8.785 -59.7275,14.9475 -18.99375,5.6875 -38.6375,12.5225 -58.93375,20.88375"
         style="fill:#8d0000;fill-opacity:1;fill-rule:nonzero;stroke:none"
         id="path2874" />
      <path
         d="m 430.11429,607.74159 c 2.38625,-1.06125 4.8225,-2.125 7.31625,-3.1925 18.0975,-7.75 35.6325,-14.26875 52.65125,-19.8225 18.23,-5.95125 36.04625,-10.8525 53.275,-14.94625 -6.64,-5.11375 -12.70125,-9.77375 -18.25125,-14.04125 -27.63625,11.945 -59.71125,28.35125 -94.99125,52.0025"
         style="fill:#0000a9;fill-opacity:1;fill-rule:nonzero;stroke:none"
         id="path2876" />
      <path
         d="m 417.81679,616.11909 c 2.18,-1.54625 4.3975,-3.09625 6.65625,-4.655 31.83875,-21.9575 60.82,-37.8425 86.51875,-49.88375 -7.555,-2.12375 -14.5175,-4.08125 -20.955,-5.8925 -20.21875,13.6475 -44.71,32.74375 -72.22,60.43125"
         style="fill:#0000e2;fill-opacity:1;fill-rule:nonzero;stroke:none"
         id="path2878" />
      <path
         d="m 407.51304,626.65159 c 1.8325,-1.9475 3.69125,-3.8975 5.58,-5.85375 25.17625,-26.0425 47.58125,-44.63 66.70875,-58.44625 -7.67375,0.0438 -14.855,0.0825 -21.59,0.1175 -7.0425,6.9375 -14.76875,15.2625 -22.8725,25.21 -8.58,10.535 -17.90125,23.28125 -27.82625,38.9725"
         style="fill:#001cff;fill-opacity:1;fill-rule:nonzero;stroke:none"
         id="path2880" />
      <path
         d="m 399.99804,638.77784 c 1.3275,-2.25375 2.6725,-4.5025 4.04375,-6.7475 9.11375,-14.92875 17.675,-27.255 25.62,-37.6025 7.49,-9.7525 14.66625,-18.04625 21.33375,-25.1175 -7.4825,1.68875 -14.61875,3.2975 -21.425,4.83375 -4.54875,6.7725 -9.39,14.93625 -14.12875,24.69 -5.175,10.6625 -10.46375,23.7125 -15.44375,39.94375"
         style="fill:#0054ff;fill-opacity:1;fill-rule:nonzero;stroke:none"
         id="path2882" />
      <path
         d="m 396.17929,651.75659 c 0.63625,-2.42125 1.295,-4.8275 1.97875,-7.2275 4.43875,-15.585 9.13625,-28.305 13.79,-38.855 4.25875,-9.6475 8.63625,-17.84125 12.855,-24.79 -7.19625,3.07 -14.19625,6.055 -21.0075,8.95875 -2.35375,6.46625 -4.53125,14.2425 -5.99875,23.44125 -1.635,10.29 -2.46375,22.885 -1.6175,38.4725"
         style="fill:#008dff;fill-opacity:1;fill-rule:nonzero;stroke:none"
         id="path2884" />
      <path
         d="m 397.07429,664.50284 c -0.2575,-2.3725 -0.485,-4.73125 -0.6775,-7.0825 -1.225,-15.01875 -0.94625,-27.315 0.155,-37.5125 0.98875,-9.11875 2.66875,-16.9275 4.63,-23.56375 -6.86625,4.37875 -13.6975,8.72625 -20.48375,13.055 -0.2,6.01375 0.345,13.145 2.32375,21.33875 2.25,9.3 6.4775,20.4475 14.0525,33.765"
         style="fill:#00c6ff;fill-opacity:1;fill-rule:nonzero;stroke:none"
         id="path2886" />
      <path
         d="m 403.59429,675.44909 c -1.33125,-2.00875 -2.6125,-4.01625 -3.84875,-6.025 -7.8375,-12.74875 -12.62875,-23.52875 -15.50875,-32.65125 -2.54125,-8.05625 -3.69,-15.13875 -4.0275,-21.2525 -6.465,5.77 -13.0475,11.63875 -19.74375,17.61625 2.1925,5.285 5.78625,11.3225 11.65125,17.8 6.67375,7.37625 16.58875,15.65125 31.4775,24.5125"
         style="fill:#00ffff;fill-opacity:1;fill-rule:nonzero;stroke:none"
         id="path2888" />
      <path
         d="m 416.09054,682.56159 c -2.4475,-1.245 -4.83875,-2.51125 -7.17875,-3.80375 -14.92375,-8.23 -25.3725,-15.9525 -32.76875,-22.945 -6.52125,-6.17 -10.88625,-11.975 -13.80625,-17.1975 -5.86,7.37 -11.97125,15.06 -18.355,23.09125 5.1075,3.9775 12.37375,8.06625 22.735,11.61875 11.66625,3.99125 27.59375,7.41625 49.37375,9.23625"
         style="fill:#38ffc6;fill-opacity:1;fill-rule:nonzero;stroke:none"
         id="path2890" />
      <path
         d="m 433.67929,683.76159 c -3.34,-0.105 -6.645,-0.25 -9.92125,-0.435 -21.29375,-1.215 -37.48375,-3.87625 -49.80875,-7.195 -11.01625,-2.9675 -19.16375,-6.52125 -25.20625,-10.14 -4.775,9.25625 -9.885,19.17125 -15.37625,29.8125 8.8225,1.49125 20.52875,2.0725 35.88375,0.72125 16.8,-1.48375 38.04375,-5.295 64.42875,-12.76375"
         style="fill:#70ff8d;fill-opacity:1;fill-rule:nonzero;stroke:none"
         id="path2892" />
      <path
         d="m 453.75804,677.80534 c -3.685,1.21375 -7.385,2.39375 -11.1025,3.53625 -24.99375,7.6625 -45.77625,12.1925 -62.785,14.56875 -15.685,2.18375 -28.17875,2.53875 -38.03,1.84625 -2.69375,11.35375 -5.665,23.83763 -8.94375,37.6325 13.3525,-3.23188 29.91875,-8.7885 49.83875,-17.8305 20.72625,-9.417 44.61625,-22.3995 71.0225,-39.75325"
         style="fill:#a9ff54;fill-opacity:1;fill-rule:nonzero;stroke:none"
         id="path2894" />
      <path
         d="m 472.36804,665.27784 c -3.28125,2.34375 -6.6275,4.69375 -10.04875,7.03625 -48.00375,32.92875 -87.53875,51.29187 -116.36125,60.49588 1.205,13.16162 2.54875,27.97462 4.0775,44.76562 17.67125,-11.6235 37.79125,-26.87013 59.41,-46.3735 20.9525,-18.90625 42.41125,-40.98925 62.9225,-65.92425"
         style="fill:#e2ff1c;fill-opacity:1;fill-rule:nonzero;stroke:none"
         id="path2896" />
      <path
         d="m 485.65554,648.73034 c -2.22625,2.95375 -4.5425,5.96375 -6.95625,9.02875 -17.75625,22.55625 -36.56875,43.1525 -55.4,61.446 -19.56125,18.998 -38.3975,34.7865 -55.695,47.61463 7.8,13.23487 16.685,28.3145 26.9025,45.65187 9.28625,-12.20938 18.6475,-25.372 27.86625,-39.42963 8.81625,-13.436 17.3875,-27.5195 25.52625,-42.13474 7.6875,-13.81163 14.88625,-27.92688 21.435,-42.21938 6.12375,-13.36125 11.605,-26.72 16.32125,-39.9575"
         style="fill:#ffe200;fill-opacity:1;fill-rule:nonzero;stroke:none"
         id="path2898" />
      <path
         d="m 491.46679,631.66784 c -0.8775,2.94 -1.82625,5.975 -2.85125,9.11375 -3.78125,11.55125 -8.17,23.265 -13.1025,35.05625 -5.25875,12.565 -11.08,25.10125 -17.36375,37.51175 -13.68125,27.0215 -29.09,52.59125 -45.09875,76.06538 16.5375,9.01175 35.1925,19.18362 56.4025,30.74612 4.9175,-18.606 9.26,-37.4365 12.8375,-56.26612 3.28,-17.27788 5.8825,-34.36038 7.68375,-51.07613 1.64375,-15.23225 2.60375,-30.01725 2.81375,-44.23225 0.19125,-12.89875 -0.23625,-25.23125 -1.32125,-36.91875"
         style="fill:#ffa900;fill-opacity:1;fill-rule:nonzero;stroke:none"
         id="path2900" />
    </g>
  </g>
</svg>
